<svg width="249" height="56" viewBox="0 0 249 56" fill="none" xmlns="http://www.w3.org/2000/svg">
<path d="M41.4492 26.8337C36.8974 23.8076 31.0734 25.0443 28.018 29.5879C25.4733 33.3948 21.6205 33.8684 20.1331 33.8684C15.2588 33.8684 11.9436 30.5177 10.949 27.053C10.949 27.053 10.9311 26.9828 10.9221 26.9565C10.9131 26.9214 10.9042 26.8776 10.8952 26.8425C10.5099 25.3952 10.4114 24.7022 10.4114 23.1672C10.4114 14.8782 19.1027 5.65066 31.602 5.65066C44.1013 5.65066 51.7443 15.194 53.6349 20.5007C53.5991 20.4042 53.5632 20.3078 53.5363 20.22C49.8896 9.83464 39.8363 2.37891 28 2.37891C13.1084 2.37891 1.03015 14.1941 1.03015 28.781C1.03015 41.8153 10.6354 52.9726 23.959 52.9726C34.5857 52.9726 41.7269 47.1396 44.9974 39.105C46.7983 34.7105 45.526 29.5441 41.4492 26.8337Z" fill="#003964"/>
<path d="M53.7872 21.0095C52.2102 15.8343 44.8271 5.64189 31.5841 5.64189C19.0758 5.64189 10.3935 14.8694 10.3935 23.1585C10.3935 24.6935 10.492 25.3864 10.8773 26.8337C10.716 26.2022 10.6354 25.5706 10.6354 24.9478C10.6354 16.3167 19.4611 10.3434 28.5287 10.3434C40.813 10.3434 50.7677 20.0885 50.7677 32.1141C50.7677 41.5347 45.2303 49.7009 37.1842 53.6217C47.5599 49.9465 54.97 40.2189 54.97 28.7897C54.97 26.0881 54.6026 23.7023 53.7872 21.0182" fill="#ED1A3B"/>
<path d="M78.1755 3.75977V8.63477H80.2537V9.66602H78.1755V14.6348H76.9412V3.75977H78.1755ZM78.6755 16.3223V17.3535H69.3474V13.9004H70.5818V16.3223H78.6755ZM67.2693 12.0254C68.3708 12.0254 69.6755 12.0176 71.0349 11.9629V10.9004C69.4177 10.752 68.3787 9.97852 68.3787 8.80664C68.3787 7.46289 69.6755 6.66602 71.6287 6.66602C73.5974 6.66602 74.8787 7.46289 74.8943 8.80664C74.8787 9.9707 73.863 10.7441 72.2537 10.9004V11.9004C73.5583 11.8379 74.8708 11.7129 76.0818 11.5254L76.1912 12.4004C73.2068 12.9629 69.8474 13.0098 67.4099 13.0254L67.2693 12.0254ZM75.6599 5.13477V6.05664H67.613V5.13477H71.0349V3.72852H72.2537V5.13477H75.6599ZM71.6287 7.54102C70.3474 7.54102 69.5505 8.02539 69.5505 8.80664C69.5505 9.57227 70.3474 10.0566 71.6287 10.0566C72.9099 10.0566 73.7224 9.57227 73.7224 8.80664C73.7224 8.02539 72.9099 7.54102 71.6287 7.54102ZM92.6755 3.77539V12.1191H91.4412V10.2441H87.7537V9.22852H91.4412V7.35352H87.8943C86.9802 9.58789 84.8318 11.2051 81.863 12.0879L81.3474 11.1191C84.7068 10.1191 86.7927 8.24414 87.0505 5.83789H82.0505V4.80664H88.3787C88.3787 5.35352 88.3162 5.87695 88.2068 6.36914H91.4412V3.77539H92.6755ZM88.1287 12.2598C90.9412 12.2598 92.7537 13.2598 92.7537 14.916C92.7537 16.5879 90.9412 17.5879 88.1287 17.5879C85.2849 17.5879 83.488 16.5879 83.488 14.916C83.488 13.2598 85.2849 12.2598 88.1287 12.2598ZM88.1287 13.2441C86.0349 13.2285 84.6912 13.8691 84.6912 14.916C84.6912 15.9629 86.0349 16.5879 88.1287 16.5879C90.1912 16.5879 91.5193 15.9629 91.5349 14.916C91.5193 13.8691 90.1912 13.2285 88.1287 13.2441ZM107.691 12.0098V13.0098H101.894V17.6504H100.691V13.0098H94.9724V12.0098H107.691ZM97.8162 4.33789V6.25977H104.816V4.33789H106.051V10.3223H96.5974V4.33789H97.8162ZM97.8162 9.32227H104.816V7.25977H97.8162V9.32227Z" fill="white"/>
<path d="M79.7185 29.6484C79.7185 32.3652 82.4861 35.3867 87.7927 36.0469L86.5232 38.6621C82.4861 38.0781 79.5281 36.2119 78.0173 33.7109C76.4939 36.2119 73.5613 38.0781 69.5623 38.6621L68.2673 36.0469C73.5232 35.3867 76.3162 32.3652 76.3162 29.6484V28.5312H79.7185V29.6484ZM88.5291 40.4141V43.0547H79.5408V50.9512H76.3416V43.0547H67.4548V40.4141H88.5291ZM109.959 27.8457V50.9512H106.912V27.8457H109.959ZM105.135 28.3535V49.9355H102.062V42.3184H98.7869V39.7031H102.062V36.5547H99.2185C98.1394 40.3633 95.8035 43.5879 91.4744 46.1523L89.5701 43.8672C94.2546 41.0996 96.3113 37.7354 96.7556 33.2031H90.9158V30.5879H99.9802C99.9802 31.7432 99.9041 32.8604 99.7771 33.9395H102.062V28.3535H105.135ZM125.345 29.5215V30.9688C125.345 32.5684 125.345 34.8789 124.812 37.748L121.638 37.4434C122.045 35.2217 122.146 33.5459 122.172 32.1621H113.463V29.5215H125.345ZM119.607 34.8535V39.2715C121.905 39.1826 124.266 39.0049 126.437 38.6875L126.615 41.0234C121.816 41.9121 116.383 41.9883 112.371 42.0137L112.092 39.4238C113.386 39.4238 114.846 39.4238 116.383 39.373V34.8535H119.607ZM131.008 27.8457V34.8789H133.801V37.5957H131.008V45.1367H127.681V27.8457H131.008ZM131.719 47.9551V50.5449H115.494V43.5879H118.744V47.9551H131.719ZM154.24 27.8457V51.002H151.015V27.8457H154.24ZM147.08 29.7754V38.6875H139.463V42.9277C142.979 42.915 145.975 42.7119 149.365 42.166L149.644 44.7812C145.836 45.4414 142.408 45.5938 138.193 45.5938H136.111V36.123H143.779V32.3906H136.086V29.7754H147.08ZM164.879 28.8105C168.408 28.7852 170.972 30.791 170.972 33.7109C170.972 36.6055 168.408 38.6367 164.879 38.6113C161.349 38.6367 158.785 36.6055 158.81 33.7109C158.785 30.791 161.349 28.7852 164.879 28.8105ZM164.879 31.4004C163.152 31.4004 161.933 32.2383 161.933 33.7109C161.933 35.1582 163.152 35.9961 164.879 35.9707C166.656 35.9961 167.9 35.1582 167.9 33.7109C167.9 32.2383 166.656 31.4004 164.879 31.4004ZM176.812 27.8711V50.9512H173.613V27.8711H176.812ZM157.388 40.0332C161.476 40.0332 167.291 39.9316 172.217 39.1953L172.42 41.582C170.515 41.9629 168.56 42.2041 166.631 42.3438V50.2656H163.406V42.5469C161.375 42.6357 159.458 42.6484 157.795 42.6738L157.388 40.0332ZM199.385 27.8711V45.3145H196.135V43.4863H191.717V41.2773H196.135V27.8711H199.385ZM199.892 47.9551V50.5449H182.677V43.6387H185.902V40.5664C183.833 40.6553 181.865 40.668 180.113 40.668L179.732 38.1035C183.972 38.0781 189.685 38.0273 194.56 37.418L194.738 39.7285C192.91 40.0332 191.018 40.249 189.152 40.3887V44.7812H185.902V47.9551H199.892ZM187.248 28.6582C190.599 28.6328 193.011 30.334 193.011 32.7969C193.011 35.2598 190.599 36.8594 187.248 36.8594C183.82 36.8594 181.433 35.2598 181.433 32.7969C181.433 30.334 183.795 28.6328 187.248 28.6582ZM187.248 31.0195C185.597 31.0195 184.48 31.6543 184.506 32.7969C184.48 33.9141 185.597 34.5234 187.248 34.5234C188.797 34.5234 189.914 33.9141 189.939 32.7969C189.914 31.6543 188.797 31.0195 187.248 31.0195ZM221.703 27.8457V50.9512H218.478V27.8457H221.703ZM202.381 44.4258C204.145 44.4131 206.164 44.4131 208.271 44.3496V42.3945C205.732 41.9502 204.082 40.376 204.107 38.2051C204.082 35.6152 206.443 33.8633 209.845 33.8633C213.273 33.8633 215.66 35.6152 215.66 38.2051C215.66 40.3633 214.01 41.9375 211.47 42.3945V44.248C213.4 44.1592 215.355 44.0068 217.209 43.7656L217.437 46.1523C212.385 47.0156 206.926 47.0664 202.812 47.0664L202.381 44.4258ZM216.879 30.4102V32.9492H202.838V30.4102H208.271V27.9473H211.496V30.4102H216.879ZM209.845 36.3262C208.271 36.3262 207.154 37.0117 207.179 38.2051C207.154 39.4238 208.271 40.084 209.845 40.084C211.47 40.084 212.562 39.4238 212.562 38.2051C212.562 37.0117 211.47 36.3262 209.845 36.3262Z" fill="white"/>
</svg>
